<?xml version="1.0" encoding="UTF-8"?>
<!DOCTYPE svg PUBLIC "-//W3C//DTD SVG 1.1//EN" "http://www.w3.org/Graphics/SVG/1.1/DTD/svg11.dtd">
<svg xmlns="http://www.w3.org/2000/svg" version="1.1" width="303px" height="130px" style="shape-rendering:geometricPrecision; text-rendering:geometricPrecision; image-rendering:optimizeQuality; fill-rule:evenodd; clip-rule:evenodd" xmlns:xlink="http://www.w3.org/1999/xlink">
<g><path style="opacity:0.942" fill="#2f1313" d="M 187.5,35.5 C 186.221,38.1117 184.555,40.4451 182.5,42.5C 181.185,41.5244 179.852,40.5244 178.5,39.5C 174.416,39.8561 170.416,40.3561 166.5,41C 162.813,42.9237 161.813,45.7571 163.5,49.5C 162.2,52.4323 160.2,54.7656 157.5,56.5C 156.378,55.3698 155.044,54.7031 153.5,54.5C 153.5,53.8333 153.167,53.5 152.5,53.5C 152.5,52.8333 152.167,52.5 151.5,52.5C 150.167,51.0665 148.667,49.7332 147,48.5C 147.108,43.6633 149.608,40.6633 154.5,39.5C 155.919,34.9021 157.086,30.2354 158,25.5C 161.833,21 165.667,16.5 169.5,12C 179.087,10.0744 188.754,9.40769 198.5,10C 199.406,11.6995 199.739,13.5328 199.5,15.5C 193.18,15.4305 187.18,16.7638 181.5,19.5C 180.386,20.723 180.219,22.0563 181,23.5C 182.308,25.6414 183.808,27.6414 185.5,29.5C 185.023,30.4776 184.357,31.3109 183.5,32C 185.324,32.66 186.657,33.8267 187.5,35.5 Z"/></g>
<g><path style="opacity:0.903" fill="#ffffff" d="M 99.5,17.5 C 103.976,17.8222 105.476,20.1556 104,24.5C 89.1667,39.3333 74.3333,54.1667 59.5,69C 74.3333,83.8333 89.1667,98.6667 104,113.5C 105.261,119.08 103.094,120.913 97.5,119C 82,103.5 66.5,88 51,72.5C 50.3623,71.3914 49.8623,70.2247 49.5,69C 65.9939,51.6727 82.6606,34.506 99.5,17.5 Z"/></g>
<g><path style="opacity:0.902" fill="#dde0ea" d="M 200.5,17.5 C 201.552,17.3505 202.552,17.5172 203.5,18C 219.667,34.1667 235.833,50.3333 252,66.5C 252.667,68.5 252.667,70.5 252,72.5C 236.473,88.027 220.973,103.527 205.5,119C 201.846,120.297 199.179,119.297 197.5,116C 212.471,100.029 227.804,84.3619 243.5,69C 228.667,54.1667 213.833,39.3333 199,24.5C 198.167,21.829 198.667,19.4957 200.5,17.5 Z"/></g>
<g><path style="opacity:1" fill="#1a1219" d="M 171.5,22.5 C 174.709,23.0129 175.709,24.6796 174.5,27.5C 176.812,29.6523 176.478,31.6523 173.5,33.5C 172.522,33.0233 171.689,32.3567 171,31.5C 168.989,34.0921 167.156,33.9254 165.5,31C 167.002,28.9943 166.669,27.3277 164.5,26C 165.927,23.6308 167.761,23.1308 170,24.5C 170.717,23.9558 171.217,23.2891 171.5,22.5 Z"/></g>
<g><path style="opacity:0.975" fill="#ec571c" d="M 182.5,42.5 C 184.555,40.4451 186.221,38.1117 187.5,35.5C 189.194,34.314 190.861,34.4807 192.5,36C 201.341,43.8374 211.008,50.504 221.5,56C 224.13,59.2279 223.964,62.3946 221,65.5C 219.167,67.3333 217.333,69.1667 215.5,71C 213.833,71.6667 212.167,71.6667 210.5,71C 201.428,62.3838 192.262,53.8838 183,45.5C 182.517,44.552 182.351,43.552 182.5,42.5 Z"/></g>
<g><path style="opacity:0.944" fill="#ededed" d="M 108.5,58.5 C 119.183,59.0062 123.016,64.3396 120,74.5C 116.1,79.5333 111.267,80.7 105.5,78C 98.3048,70.1528 99.3048,63.6528 108.5,58.5 Z"/></g>
<g><path style="opacity:0.944" fill="#fefefe" d="M 189.5,58.5 C 200.164,58.99 203.997,64.3234 201,74.5C 196.261,80.082 190.761,80.9154 184.5,77C 179.345,68.843 181.011,62.6764 189.5,58.5 Z"/></g>
<g><path style="opacity:1" fill="#ffffff" d="M 151.5,52.5 C 152.167,52.5 152.5,52.8333 152.5,53.5C 153.167,53.5 153.5,53.8333 153.5,54.5C 156.234,57.6247 158.734,60.958 161,64.5C 161.476,69.2166 161.476,73.8832 161,78.5C 163.854,75.3855 165.021,71.7189 164.5,67.5C 165.822,67.33 166.989,67.6634 168,68.5C 176.12,80.8205 175.287,92.3205 165.5,103C 170.155,103.499 174.821,103.666 179.5,103.5C 179.5,104.5 179.5,105.5 179.5,106.5C 158.823,106.833 138.156,106.5 117.5,105.5C 117.709,104.914 118.043,104.414 118.5,104C 122.167,103.667 125.833,103.333 129.5,103C 124.219,99.689 121.886,94.8556 122.5,88.5C 123.011,81.7991 124.844,75.4657 128,69.5C 128.719,65.8546 129.219,62.1879 129.5,58.5C 130.675,58.281 131.675,58.6143 132.5,59.5C 134.833,62.8333 137.167,66.1667 139.5,69.5C 143.646,64.263 145.646,58.263 145.5,51.5C 147.565,51.5172 149.565,51.8505 151.5,52.5 Z"/></g>
<g><path style="opacity:1" fill="#ee8b18" d="M 153.5,104.5 C 155.33,101.826 156.33,98.8262 156.5,95.5C 153.706,90.2188 151.706,84.5522 150.5,78.5C 144.198,82.9066 142.865,88.5733 146.5,95.5C 145.635,96.5827 144.635,96.7494 143.5,96C 140.935,93.7051 139.269,90.8718 138.5,87.5C 137.808,88.0253 137.308,88.6919 137,89.5C 135.983,94.8751 136.816,99.8751 139.5,104.5C 127.801,102.294 122.968,95.2938 125,83.5C 127.928,77.0482 130.262,70.3816 132,63.5C 136.087,67.6735 138.587,72.6735 139.5,78.5C 142.902,70.2511 146.236,62.4177 149.5,55C 158.802,62.6481 161.136,72.1481 156.5,83.5C 161.786,81.7106 165.286,78.044 167,72.5C 174.048,83.6138 172.548,93.4471 162.5,102C 159.794,103.908 156.794,104.741 153.5,104.5 Z"/></g>
<g><path style="opacity:1" fill="#f6f3f0" d="M 153.5,104.5 C 148.833,104.5 144.167,104.5 139.5,104.5C 136.816,99.8751 135.983,94.8751 137,89.5C 137.308,88.6919 137.808,88.0253 138.5,87.5C 139.269,90.8718 140.935,93.7051 143.5,96C 144.635,96.7494 145.635,96.5827 146.5,95.5C 142.865,88.5733 144.198,82.9066 150.5,78.5C 151.706,84.5522 153.706,90.2188 156.5,95.5C 156.33,98.8262 155.33,101.826 153.5,104.5 Z"/></g>
</svg>
